<svg width="190" height="44" fill="none" xmlns="http://www.w3.org/2000/svg"><path d="M87.692 20.863v-3.875h15.232v3.875h-5.271V34.7h-4.69V20.863h-5.27zM109.506 27.228v7.473h-4.723V16.988h4.552v6.954h.137c.297-.848.79-1.508 1.48-1.98.691-.48 1.521-.719 2.491-.719.929 0 1.737.214 2.421.64a4.29 4.29 0 011.6 1.765c.383.75.571 1.608.565 2.577v8.476h-4.723v-7.473c.005-.657-.157-1.173-.488-1.548-.325-.375-.79-.562-1.395-.562-.576 0-1.038.187-1.386.562-.348.375-.525.891-.531 1.548zM126.659 34.943c-2.105 0-3.762-.602-4.972-1.807-1.203-1.211-1.805-2.892-1.805-5.043 0-1.372.273-2.571.821-3.598a5.909 5.909 0 012.319-2.395c.998-.571 2.176-.857 3.534-.857 1.324 0 2.473.274 3.449.822a5.627 5.627 0 012.276 2.352c.542 1.015.813 2.229.813 3.642v1.107h-8.557v.207c0 .64.194 1.17.582 1.592.393.415.941.622 1.642.622.485 0 .908-.1 1.267-.302.365-.208.616-.5.753-.874h4.313c-.223 1.384-.896 2.485-2.02 3.304-1.118.819-2.59 1.228-4.415 1.228zm-2.122-8.407h4.21c-.012-.57-.217-1.035-.616-1.392-.394-.363-.885-.545-1.472-.545a2.21 2.21 0 00-1.489.536c-.411.358-.622.825-.633 1.401zM150.159 16.988h4.723v11.693c0 1.35-.314 2.488-.941 3.417-.622.922-1.501 1.623-2.636 2.101-1.129.473-2.459.71-3.987.71-1.541 0-2.878-.237-4.014-.71-1.129-.478-2.005-1.179-2.627-2.101-.616-.929-.924-2.067-.924-3.417V16.988h4.758v11.486c0 .657.248 1.19.744 1.6.502.41 1.19.614 2.063.614.89 0 1.586-.205 2.088-.614.502-.41.753-.943.753-1.6V16.988zM166.59 22.523c-.046-.576-.259-1.026-.642-1.349-.376-.323-.949-.484-1.72-.484-.736 0-1.272.127-1.608.38-.337.254-.508.577-.514.969-.023.42.157.764.539 1.03.388.265.996.486 1.823.665l1.438.312c1.933.42 3.328 1.095 4.184 2.023.856.923 1.286 2.059 1.292 3.408-.006 1.747-.639 3.09-1.9 4.03-1.26.934-3 1.402-5.219 1.402-1.524 0-2.853-.228-3.988-.684-1.129-.455-2.008-1.156-2.636-2.101-.621-.952-.935-2.168-.941-3.65h4.518c.04.813.317 1.433.83 1.86.519.42 1.235.63 2.148.63.765 0 1.341-.138 1.729-.415.393-.276.593-.634.599-1.072-.006-.404-.203-.738-.591-1.003-.388-.271-1.069-.513-2.045-.727l-1.746-.38c-1.551-.34-2.775-.908-3.67-1.704-.89-.802-1.333-1.894-1.327-3.278-.006-1.124.291-2.108.89-2.95.605-.847 1.441-1.507 2.507-1.98 1.073-.473 2.302-.71 3.688-.71 1.415 0 2.639.24 3.671.719 1.033.478 1.829 1.153 2.388 2.024.565.864.85 1.876.855 3.035h-4.552zM177.062 34.701h-5.134l5.784-17.713h6.503L190 34.701h-5.134l-1.01-3.39h-5.784l-1.01 3.39zm2.088-6.988h3.628l-1.746-5.847h-.137l-1.745 5.847zM72.86 5.473v.438l-1.316 1.164-.65-.021-.493.262.134.527v.373l-1.145.55-.2.769v1.448l.898 1.052-.112.44-.944.373v.591l-.679.358-.446.235h-.741l-1.167 1.164.18.176.203 1.316-.764 1.715-.291-.045-.067-.484-.726-.04.499.853.585.68-.247 1.01-.405.648h-.396l.06-.736-.343-.529-.502-.257-.052-.664.158-.834-.245-.154-.563.571.203.417.046.923.36.176.38.703.083.382.05.232-.158.505.585.045.45.193-.113.552.381.241-.021.219-.383.351.673.506v.658l-.517.307.314.549-.223.55-1.776.284v.68l-.515.967-.832.177-.127.212-.479.796.024.44-1.077 1.118h-.453l-.36.769-.584.307-.01.184-.146 2.275.426.55.181.767.024.021.449.375v.594l1.076.9.112 1.011.404.738.787 1.436v2.178h-1.662v-.025c-.064-.161-.472-.51-.472-.51l-.627.048v-.747h-.428l-.18-.284v-.417l-.36-.023-.716-.813.09-.46-.359.044-.181-.329.023-.097.158-.671-.114-1.141-.381-.132-1.144-1.23-.968-.067-1.143.658-.45.11-.696-1.008-1.856-.134-.277-.02-.028.02-.578.418-.314-.35-.398.344-1.668.006v.703l-.314.417.853.857-.472.284-1.145-.527-.608.705-1.031-.004-.29-.988-1.192-.328v.505l-.245.155-1.64-.417h-.696l-2.224.965v.44l-.896.591-.99.199-.359.527-.494.044-.268.614-.336.089.022 1.274c-.063.21-.054.461-.017.704.085.549.33 1.073.33 1.073l-.292.218-1.21-.351c-.782-.148-1.262-.557-1.55-.94a2.397 2.397 0 01-.406-.793c-.089-.594-.223-.812-.223-.812-.74-.417-1.303-1.954-1.303-1.954-.007-.02-.015-.036-.024-.053-.537-1.26-1.301-1.878-1.301-1.878h-.74l-.224-.242-1.258-.044v.857l-.786.591c-1.168-.284-1.994-1.702-1.994-1.702l.04-.777-2.559-3.03-2.381-.175-.2.901-4.246-.505-4.872-2.877v-.768H6.626l-.111-1.192-.047-.52-.585-.218v-.658h-.539l-.082-.474-.455-.119-.855-1.03-1.122-.132-.381-.307.052-.153.001-.002.17-.484-.134-.24-.114-.285.157-.396-.717-1.734-.203-.177v-.263l.314-.328v-.329l-.517-.594.045-1.296-.472-.505.046-.703-.526-.777.054-1.04.157-.664L0 13.99l.428-.571.785-1.251-.09-.614.224-.396.09-1.58L2.876 7.03v-.571l.24-.344.209-.293.45-1.404v-.394l.405-.462-.247-.44.028-.716.375-.356L3.977 2l.022-.525-.224-.11v-.35L4 .425h.314l.203.527.74.285.787.132v.528l-.336.462-.45.152.09.703h.65l.45-.527V2.07l.18-.219-.36-.46.26-.441.1-.24-.203-.198L6.626 0l2.782.839 3.438.9 1.178.254.148.031 5.86.923.128.017 1.431.167 7.273.86 6.325.273 2.964-.195v-.572l.608.35v.724l1.258.44.36-.396.941.307.27.44 1.038.75 1.218.61-1.827 1.834 1.095-.34v.73l1.341-.39.84-.71.378-.513h.61l-.61.883h.61l.608.34h1.218l1.218-.34.418.463h.447l.353.488-3.045.61L46.891 11v5.5l1.218-.611v-2.227l.16-1.734 1.476-1.919h1.003l.544.535.47.456-.47 1.653 1.08-.219.609 1.01-.61 1.223v1.222H54.2l.44-.236v-.651l1.189-1.34 1.1.066.967-.745.672.021.18-.351-.157-.308-.718.09-.113-.507.717-.68 1.213-.635.945.043-.136-.417 1.504-.614.337-.68.944-.813 3.592-.814.224-.59.554-.152.005-.002.136-.262.022-.418.316-.11-.024-.46-.269-.551.372-1.811h2.474l.59 1.811.54.023.064.565.98.112z" fill="#fff"/></svg>